<mxfile host="app.diagrams.net" modified="2021-04-08T13:28:47.408Z" agent="5.0 (X11)" etag="R1GFvbYpN0Ps0qErw5qp" version="14.5.8" type="github">
  <diagram id="kgpKYQtTHZ0yAKxKKP6v" name="Page-1">
    <mxGraphModel dx="1058" dy="652" grid="1" gridSize="10" guides="1" tooltips="1" connect="1" arrows="1" fold="1" page="1" pageScale="1" pageWidth="850" pageHeight="1100" math="0" shadow="0">
      <root>
        <mxCell id="0" />
        <mxCell id="1" parent="0" />
        <mxCell id="3nuBFxr9cyL0pnOWT2aG-1" value="MainActivity&#xa;" style="shape=umlLifeline;perimeter=lifelinePerimeter;container=1;collapsible=0;recursiveResize=0;rounded=0;shadow=0;strokeWidth=1;" parent="1" vertex="1">
          <mxGeometry x="120" y="80" width="100" height="490" as="geometry" />
        </mxCell>
        <mxCell id="3nuBFxr9cyL0pnOWT2aG-2" value="" style="points=[];perimeter=orthogonalPerimeter;rounded=0;shadow=0;strokeWidth=1;" parent="3nuBFxr9cyL0pnOWT2aG-1" vertex="1">
          <mxGeometry x="45" y="70" width="10" height="400" as="geometry" />
        </mxCell>
        <mxCell id="QQjv_8HyStSkkpQ6I2v0-1" value="" style="endArrow=classic;html=1;" edge="1" parent="1">
          <mxGeometry width="50" height="50" relative="1" as="geometry">
            <mxPoint x="180" y="160" as="sourcePoint" />
            <mxPoint x="280" y="160" as="targetPoint" />
          </mxGeometry>
        </mxCell>
        <mxCell id="QQjv_8HyStSkkpQ6I2v0-2" value="WeatherService&#xa;" style="shape=umlLifeline;perimeter=lifelinePerimeter;container=1;collapsible=0;recursiveResize=0;rounded=0;shadow=0;strokeWidth=1;" vertex="1" parent="1">
          <mxGeometry x="283" y="140" width="97" height="420" as="geometry" />
        </mxCell>
        <mxCell id="QQjv_8HyStSkkpQ6I2v0-3" value="" style="points=[];perimeter=orthogonalPerimeter;rounded=0;shadow=0;strokeWidth=1;" vertex="1" parent="QQjv_8HyStSkkpQ6I2v0-2">
          <mxGeometry x="45" y="70" width="10" height="330" as="geometry" />
        </mxCell>
        <mxCell id="QQjv_8HyStSkkpQ6I2v0-4" value="&lt;div&gt;bindService&lt;/div&gt;" style="text;html=1;strokeColor=none;fillColor=none;align=center;verticalAlign=middle;whiteSpace=wrap;rounded=0;" vertex="1" parent="1">
          <mxGeometry x="212" y="140" width="40" height="20" as="geometry" />
        </mxCell>
        <mxCell id="QQjv_8HyStSkkpQ6I2v0-5" value="ExecutorService&#xa;" style="shape=umlLifeline;perimeter=lifelinePerimeter;container=1;collapsible=0;recursiveResize=0;rounded=0;shadow=0;strokeWidth=1;" vertex="1" parent="1">
          <mxGeometry x="680" y="190" width="100" height="300" as="geometry" />
        </mxCell>
        <mxCell id="QQjv_8HyStSkkpQ6I2v0-6" value="" style="points=[];perimeter=orthogonalPerimeter;rounded=0;shadow=0;strokeWidth=1;" vertex="1" parent="QQjv_8HyStSkkpQ6I2v0-5">
          <mxGeometry x="45" y="70" width="10" height="190" as="geometry" />
        </mxCell>
        <mxCell id="QQjv_8HyStSkkpQ6I2v0-7" value="WeatherService&#xa;Runnable&#xa;&#xa;" style="shape=umlLifeline;perimeter=lifelinePerimeter;container=1;collapsible=0;recursiveResize=0;rounded=0;shadow=0;strokeWidth=1;size=60;" vertex="1" parent="1">
          <mxGeometry x="440" y="240" width="100" height="270" as="geometry" />
        </mxCell>
        <mxCell id="QQjv_8HyStSkkpQ6I2v0-8" value="" style="points=[];perimeter=orthogonalPerimeter;rounded=0;shadow=0;strokeWidth=1;" vertex="1" parent="QQjv_8HyStSkkpQ6I2v0-7">
          <mxGeometry x="45" y="70" width="10" height="190" as="geometry" />
        </mxCell>
        <mxCell id="QQjv_8HyStSkkpQ6I2v0-9" value="WeatherRequest&#xa;" style="shape=umlLifeline;perimeter=lifelinePerimeter;container=1;collapsible=0;recursiveResize=0;rounded=0;shadow=0;strokeWidth=1;" vertex="1" parent="1">
          <mxGeometry x="580" y="330" width="100" height="180" as="geometry" />
        </mxCell>
        <mxCell id="QQjv_8HyStSkkpQ6I2v0-10" value="" style="points=[];perimeter=orthogonalPerimeter;rounded=0;shadow=0;strokeWidth=1;" vertex="1" parent="QQjv_8HyStSkkpQ6I2v0-9">
          <mxGeometry x="45" y="70" width="10" height="90" as="geometry" />
        </mxCell>
        <mxCell id="QQjv_8HyStSkkpQ6I2v0-11" value="" style="endArrow=classic;html=1;exitX=1.18;exitY=0.054;exitDx=0;exitDy=0;exitPerimeter=0;entryX=0;entryY=0.083;entryDx=0;entryDy=0;entryPerimeter=0;" edge="1" parent="1" target="QQjv_8HyStSkkpQ6I2v0-5">
          <mxGeometry width="50" height="50" relative="1" as="geometry">
            <mxPoint x="338.79999999999995" y="215.26000000000005" as="sourcePoint" />
            <mxPoint x="650" y="215" as="targetPoint" />
          </mxGeometry>
        </mxCell>
        <mxCell id="QQjv_8HyStSkkpQ6I2v0-12" value="" style="endArrow=classic;html=1;exitX=1.18;exitY=0.054;exitDx=0;exitDy=0;exitPerimeter=0;" edge="1" parent="1">
          <mxGeometry width="50" height="50" relative="1" as="geometry">
            <mxPoint x="175.99999999999994" y="260.26000000000005" as="sourcePoint" />
            <mxPoint x="330" y="260" as="targetPoint" />
          </mxGeometry>
        </mxCell>
        <mxCell id="QQjv_8HyStSkkpQ6I2v0-13" value="getCurrentWeather" style="text;html=1;strokeColor=none;fillColor=none;align=center;verticalAlign=middle;whiteSpace=wrap;rounded=0;" vertex="1" parent="1">
          <mxGeometry x="230" y="240" width="40" height="20" as="geometry" />
        </mxCell>
        <mxCell id="QQjv_8HyStSkkpQ6I2v0-15" value="" style="endArrow=classic;html=1;exitX=1.18;exitY=0.054;exitDx=0;exitDy=0;exitPerimeter=0;" edge="1" parent="1">
          <mxGeometry width="50" height="50" relative="1" as="geometry">
            <mxPoint x="336.79999999999995" y="269.26000000000005" as="sourcePoint" />
            <mxPoint x="440" y="269" as="targetPoint" />
          </mxGeometry>
        </mxCell>
        <mxCell id="QQjv_8HyStSkkpQ6I2v0-16" value="" style="endArrow=classic;html=1;exitX=1.18;exitY=0.054;exitDx=0;exitDy=0;exitPerimeter=0;" edge="1" parent="1">
          <mxGeometry width="50" height="50" relative="1" as="geometry">
            <mxPoint x="339.79999999999995" y="305.26" as="sourcePoint" />
            <mxPoint x="720" y="305" as="targetPoint" />
          </mxGeometry>
        </mxCell>
        <mxCell id="QQjv_8HyStSkkpQ6I2v0-17" value="" style="endArrow=classic;html=1;" edge="1" parent="1">
          <mxGeometry width="50" height="50" relative="1" as="geometry">
            <mxPoint x="722.5" y="321" as="sourcePoint" />
            <mxPoint x="500" y="321" as="targetPoint" />
          </mxGeometry>
        </mxCell>
        <mxCell id="QQjv_8HyStSkkpQ6I2v0-18" value="execute" style="text;html=1;strokeColor=none;fillColor=none;align=center;verticalAlign=middle;whiteSpace=wrap;rounded=0;" vertex="1" parent="1">
          <mxGeometry x="590" y="282" width="40" height="20" as="geometry" />
        </mxCell>
        <mxCell id="QQjv_8HyStSkkpQ6I2v0-19" value="run" style="text;html=1;strokeColor=none;fillColor=none;align=center;verticalAlign=middle;whiteSpace=wrap;rounded=0;" vertex="1" parent="1">
          <mxGeometry x="578" y="304" width="40" height="20" as="geometry" />
        </mxCell>
        <mxCell id="QQjv_8HyStSkkpQ6I2v0-22" value="" style="endArrow=classic;html=1;" edge="1" parent="1">
          <mxGeometry width="50" height="50" relative="1" as="geometry">
            <mxPoint x="500" y="350" as="sourcePoint" />
            <mxPoint x="579.2" y="350" as="targetPoint" />
          </mxGeometry>
        </mxCell>
        <mxCell id="QQjv_8HyStSkkpQ6I2v0-23" value="" style="endArrow=classic;html=1;" edge="1" parent="1">
          <mxGeometry width="50" height="50" relative="1" as="geometry">
            <mxPoint x="500" y="420" as="sourcePoint" />
            <mxPoint x="623.2" y="420" as="targetPoint" />
          </mxGeometry>
        </mxCell>
        <mxCell id="QQjv_8HyStSkkpQ6I2v0-24" value="" style="endArrow=classic;html=1;" edge="1" parent="1">
          <mxGeometry width="50" height="50" relative="1" as="geometry">
            <mxPoint x="500" y="436" as="sourcePoint" />
            <mxPoint x="623.2" y="436" as="targetPoint" />
          </mxGeometry>
        </mxCell>
        <mxCell id="QQjv_8HyStSkkpQ6I2v0-25" value="buildRequestURL" style="text;html=1;strokeColor=none;fillColor=none;align=center;verticalAlign=middle;whiteSpace=wrap;rounded=0;" vertex="1" parent="1">
          <mxGeometry x="530" y="400" width="40" height="20" as="geometry" />
        </mxCell>
        <mxCell id="QQjv_8HyStSkkpQ6I2v0-26" value="doRequest" style="text;html=1;strokeColor=none;fillColor=none;align=center;verticalAlign=middle;whiteSpace=wrap;rounded=0;" vertex="1" parent="1">
          <mxGeometry x="530" y="419" width="40" height="20" as="geometry" />
        </mxCell>
        <mxCell id="QQjv_8HyStSkkpQ6I2v0-30" value="" style="endArrow=none;html=1;" edge="1" parent="1">
          <mxGeometry width="50" height="50" relative="1" as="geometry">
            <mxPoint x="637" y="443" as="sourcePoint" />
            <mxPoint x="647" y="443" as="targetPoint" />
          </mxGeometry>
        </mxCell>
        <mxCell id="QQjv_8HyStSkkpQ6I2v0-35" value="" style="endArrow=none;html=1;" edge="1" parent="1">
          <mxGeometry width="50" height="50" relative="1" as="geometry">
            <mxPoint x="648" y="472" as="sourcePoint" />
            <mxPoint x="648" y="443" as="targetPoint" />
          </mxGeometry>
        </mxCell>
        <mxCell id="QQjv_8HyStSkkpQ6I2v0-36" value="" style="endArrow=classic;html=1;" edge="1" parent="1">
          <mxGeometry width="50" height="50" relative="1" as="geometry">
            <mxPoint x="648" y="472" as="sourcePoint" />
            <mxPoint x="634" y="472" as="targetPoint" />
          </mxGeometry>
        </mxCell>
        <mxCell id="QQjv_8HyStSkkpQ6I2v0-37" value="&lt;div&gt;parse&lt;/div&gt;&lt;div&gt;Weather&lt;/div&gt;" style="text;html=1;strokeColor=none;fillColor=none;align=center;verticalAlign=middle;whiteSpace=wrap;rounded=0;" vertex="1" parent="1">
          <mxGeometry x="652" y="450" width="40" height="20" as="geometry" />
        </mxCell>
        <mxCell id="QQjv_8HyStSkkpQ6I2v0-38" value="" style="endArrow=open;html=1;dashed=1;endFill=0;" edge="1" parent="1">
          <mxGeometry width="50" height="50" relative="1" as="geometry">
            <mxPoint x="620" y="486" as="sourcePoint" />
            <mxPoint x="497" y="486" as="targetPoint" />
          </mxGeometry>
        </mxCell>
        <mxCell id="QQjv_8HyStSkkpQ6I2v0-39" value="" style="endArrow=open;html=1;dashed=1;endFill=0;" edge="1" parent="1">
          <mxGeometry width="50" height="50" relative="1" as="geometry">
            <mxPoint x="484" y="495.9999999999999" as="sourcePoint" />
            <mxPoint x="340" y="496" as="targetPoint" />
          </mxGeometry>
        </mxCell>
        <mxCell id="QQjv_8HyStSkkpQ6I2v0-40" value="" style="endArrow=open;html=1;dashed=1;endFill=0;" edge="1" parent="1">
          <mxGeometry width="50" height="50" relative="1" as="geometry">
            <mxPoint x="324" y="507.9999999999999" as="sourcePoint" />
            <mxPoint x="180" y="507.9999999999999" as="targetPoint" />
          </mxGeometry>
        </mxCell>
        <mxCell id="QQjv_8HyStSkkpQ6I2v0-43" value="updateWeatherView" style="text;html=1;strokeColor=none;fillColor=none;align=center;verticalAlign=middle;whiteSpace=wrap;rounded=0;" vertex="1" parent="1">
          <mxGeometry x="230" y="488" width="40" height="20" as="geometry" />
        </mxCell>
        <mxCell id="QQjv_8HyStSkkpQ6I2v0-45" value="Actor" style="shape=umlActor;verticalLabelPosition=bottom;verticalAlign=top;html=1;outlineConnect=0;" vertex="1" parent="1">
          <mxGeometry x="70" y="70" width="30" height="60" as="geometry" />
        </mxCell>
        <mxCell id="QQjv_8HyStSkkpQ6I2v0-46" value="" style="endArrow=none;html=1;dashed=1;" edge="1" parent="1">
          <mxGeometry width="50" height="50" relative="1" as="geometry">
            <mxPoint x="90" y="390" as="sourcePoint" />
            <mxPoint x="90" y="160" as="targetPoint" />
          </mxGeometry>
        </mxCell>
        <mxCell id="QQjv_8HyStSkkpQ6I2v0-47" value="" style="endArrow=none;html=1;dashed=1;" edge="1" parent="1">
          <mxGeometry width="50" height="50" relative="1" as="geometry">
            <mxPoint x="90" y="570" as="sourcePoint" />
            <mxPoint x="90.00000000000011" y="160" as="targetPoint" />
          </mxGeometry>
        </mxCell>
        <mxCell id="QQjv_8HyStSkkpQ6I2v0-48" value="" style="endArrow=classic;html=1;" edge="1" parent="1">
          <mxGeometry width="50" height="50" relative="1" as="geometry">
            <mxPoint x="90" y="256" as="sourcePoint" />
            <mxPoint x="164" y="256" as="targetPoint" />
          </mxGeometry>
        </mxCell>
        <mxCell id="QQjv_8HyStSkkpQ6I2v0-49" value="" style="endArrow=none;html=1;" edge="1" parent="1">
          <mxGeometry width="50" height="50" relative="1" as="geometry">
            <mxPoint x="625" y="502" as="sourcePoint" />
            <mxPoint x="635" y="492" as="targetPoint" />
          </mxGeometry>
        </mxCell>
        <mxCell id="QQjv_8HyStSkkpQ6I2v0-50" value="" style="endArrow=none;html=1;" edge="1" parent="1">
          <mxGeometry width="50" height="50" relative="1" as="geometry">
            <mxPoint x="625" y="492" as="sourcePoint" />
            <mxPoint x="635" y="502" as="targetPoint" />
          </mxGeometry>
        </mxCell>
        <mxCell id="QQjv_8HyStSkkpQ6I2v0-51" value="" style="endArrow=none;html=1;" edge="1" parent="1">
          <mxGeometry width="50" height="50" relative="1" as="geometry">
            <mxPoint x="485" y="513" as="sourcePoint" />
            <mxPoint x="495" y="503" as="targetPoint" />
          </mxGeometry>
        </mxCell>
        <mxCell id="QQjv_8HyStSkkpQ6I2v0-52" value="" style="endArrow=none;html=1;" edge="1" parent="1">
          <mxGeometry width="50" height="50" relative="1" as="geometry">
            <mxPoint x="485" y="503" as="sourcePoint" />
            <mxPoint x="495" y="513" as="targetPoint" />
          </mxGeometry>
        </mxCell>
      </root>
    </mxGraphModel>
  </diagram>
</mxfile>
